<?xml version="1.0" encoding="UTF-8"?>
<svg height="16px" viewBox="0 0 16 16" width="16px" xmlns="http://www.w3.org/2000/svg" xmlns:xlink="http://www.w3.org/1999/xlink">
    <filter id="a" height="100%" width="100%" x="0%" y="0%">
        <feColorMatrix in="SourceGraphic" type="matrix" values="0 0 0 0 1 0 0 0 0 1 0 0 0 0 1 0 0 0 1 0"/>
    </filter>
    <mask id="b">
        <g filter="url(#a)">
            <rect fill-opacity="0.1" height="16" width="16"/>
        </g>
    </mask>
    <clipPath id="c">
        <rect height="152" width="192"/>
    </clipPath>
    <mask id="d">
        <g filter="url(#a)">
            <rect fill-opacity="0.1" height="16" width="16"/>
        </g>
    </mask>
    <clipPath id="e">
        <rect height="152" width="192"/>
    </clipPath>
    <g clip-path="url(#c)" mask="url(#b)" transform="matrix(1 0 0 1 -168 -16)">
        <path d="m 128 114.65625 c -0.082031 4.089844 -3.378906 7.34375 -7.492188 7.34375 h -48.507812 l 48.003906 2 h 0.503906 c 3.246094 0 6.058594 -1.8125 7.492188 -4.480469 z m 0 0"/>
    </g>
    <g fill="#241f31">
        <path d="m 2 11.976562 v 2.046876 h 11.5 v -2.046876 z m 0 0"/>
        <path d="m 2 3.5 v 10 h 2 v -10 z m 0 0"/>
        <path d="m 3 0 l -3 4 h 6 z m 0 0"/>
        <path d="m 16 13 l -4 3 v -6 z m 0 0"/>
        <path d="m 11.949219 2.792969 c -0.535157 -0.011719 -1.066407 0.195312 -1.433594 0.5 c -0.367187 0.300781 -0.605469 0.660156 -0.792969 1.027343 c -0.378906 0.730469 -0.574218 1.53125 -0.773437 2.273438 c -0.195313 0.738281 -0.386719 1.429688 -0.558594 1.773438 c -0.011719 0.023437 -0.007813 0.011718 -0.019531 0.027343 c -0.113282 -0.058593 -0.246094 -0.117187 -0.496094 -0.402343 c -0.328125 -0.367188 -0.675781 -0.882813 -1.167969 -1.355469 c -0.246093 -0.238281 -0.535156 -0.476563 -0.933593 -0.636719 c -0.398438 -0.160156 -0.921876 -0.207031 -1.390626 -0.0625 c -0.933593 0.292969 -1.539062 1.039062 -2.226562 2.203125 c -0.152344 0.257813 -0.195312 0.5625 -0.121094 0.851563 c 0.074219 0.289062 0.261719 0.535156 0.515625 0.6875 c 0.535157 0.316406 1.222657 0.136718 1.539063 -0.398438 c 0.542968 -0.917969 0.90625 -1.128906 0.914062 -1.144531 c 0.039063 0.027343 0.0625 0.035156 0.140625 0.113281 c 0.253907 0.242188 0.609375 0.730469 1.050781 1.230469 c 0.441407 0.5 1.023438 1.089843 1.941407 1.25 c 0.519531 0.089843 1.113281 -0.074219 1.492187 -0.367188 c 0.382813 -0.292969 0.601563 -0.648437 0.773438 -1 c 0.347656 -0.703125 0.527344 -1.464843 0.71875 -2.199219 c 0.195312 -0.734374 0.398437 -1.425781 0.597656 -1.816406 c 0.09375 -0.179687 0.171875 -0.261718 0.203125 -0.296875 c -0.019531 0.003907 0.074219 0.011719 0.285156 0.261719 c 0.226563 0.273438 0.488281 0.726562 0.699219 1.199219 c 0.425781 0.949219 0.675781 1.929687 0.675781 1.929687 c 0.074219 0.289063 0.257813 0.539063 0.511719 0.691406 c 0.257812 0.152344 0.5625 0.199219 0.851562 0.125 c 0.601563 -0.152343 0.964844 -0.761718 0.8125 -1.363281 c 0 0 -0.277343 -1.132812 -0.804687 -2.304687 c -0.261719 -0.585938 -0.582031 -1.191406 -1.027344 -1.722656 c -0.445312 -0.527344 -1.089843 -1.058594 -1.980469 -1.078126 z m 0 0"/>
    </g>
    <g clip-path="url(#e)" mask="url(#d)" transform="matrix(1 0 0 1 -168 -16)">
        <path d="m 128 118.65625 c -0.082031 4.089844 -3.378906 7.34375 -7.492188 7.34375 h -38.507812 l 38.003906 2 h 0.503906 c 3.246094 0 6.058594 -1.8125 7.492188 -4.480469 z m 0 0"/>
    </g>
</svg>
